<?xml version="1.0" encoding="utf-8"?>
<!-- Generator: Adobe Illustrator 24.2.1, SVG Export Plug-In . SVG Version: 6.00 Build 0)  -->
<svg version="1.0" id="Layer_1" xmlns="http://www.w3.org/2000/svg" xmlns:xlink="http://www.w3.org/1999/xlink" x="0px" y="0px"
	 viewBox="0 0 612 792" style="enable-background:new 0 0 612 792;" xml:space="preserve">
<style type="text/css">
	.st0{fill:#0FAA57;}
	.st1{fill:#FBFDFC;}
</style>
<g>
	<path class="st0" d="M305.02,251.36c18.18-1.69,36.06,1.64,53.99,3.84c32.96,4.03,65.3,11.34,97.05,20.96
		c14.26,4.32,24.59,14.05,30.72,28.07c11.09,25.35,18.35,51.59,21.66,79.16c1.38,11.48,2.23,22.93,1.01,34.16
		c-3.41,31.38-10.46,61.99-24.98,90.33C478.57,519.42,469,528,456.5,531.41c-45.74,12.48-92.2,21.31-139.69,23.08
		c-42.72,1.6-84.7-4.9-126.31-13.94c-11.71-2.54-23.39-5.29-34.97-8.36c-14.33-3.79-25.03-12.69-31.39-25.86
		c-11.59-24-18.65-49.37-22.44-75.83c-2.22-15.48-2.63-31.01-1-46.25c2.91-27.22,10.16-53.51,21.24-78.75
		c5.1-11.61,13.09-19.86,23.62-26.16c4.62-2.76,9.77-4.29,14.92-5.6c34.06-8.68,68.25-16.71,103.34-20.25
		C277.52,252.1,291.15,250.17,305.02,251.36z M245.49,507.75c0,0.61,0,1.23,0,1.84c22.14,0,44.29,0.17,66.43-0.04
		c31.03-0.3,55.57-13.23,71.64-39.85c16.28-26.96,16.77-55.25,1.37-82.69c-15.29-27.24-39.41-41.34-70.78-42.02
		c-16.78-0.36-28.23,16.07-22.8,31.84c3.36,9.76,11.6,15.43,23.48,16.16c15.87,0.98,29.03,12.34,31.97,27.59
		c3.01,15.63-5.05,30.96-19.69,37.81c-7.43,3.47-15.26,2.92-23.07,2.83c-39.13-0.47-78.26-1.02-117.39-1.41
		c-11.66-0.11-17.57,5.85-17.84,17.43c-0.18,7.49-0.3,14.98-0.36,22.47c-0.06,6.98,1.01,8.02,8.12,8.03
		C199.54,507.76,222.51,507.75,245.49,507.75z M367.48,334.8c0,0.46,0,0.92,0,1.38c17.81,0,35.62,0,53.43,0
		c13.76,0,19.54-5.65,19.72-19.26c0.09-6.82,0.23-13.64,0.3-20.47c0.08-7.42-0.86-8.32-8.23-8.41
		c-37.62-0.43-75.24-0.55-112.85-1.45c-28.15-0.67-51.78,8.53-69.64,30.35c-36.37,44.43-16.99,111.39,37.36,130.03
		c7.44,2.55,15.12,3.91,23.01,4.18c14.8,0.51,26.06-8.96,26.58-22.45c0.56-14.61-9.22-24.81-24.57-25.64
		c-18.67-1.01-33.13-16.39-32.75-34.86c0.38-18.49,15.45-33.29,34.21-33.39C331.86,334.72,349.67,334.8,367.48,334.8z"/>
	<path class="st1" d="M176.57,507.74c-7.11,0-8.18-1.04-8.12-8.03c0.06-7.49,0.19-14.98,0.36-22.47
		c0.27-11.58,6.18-17.54,17.84-17.43c39.13,0.39,78.26,0.94,117.39,1.41c7.81,0.09,15.65,0.65,23.07-2.83
		c14.64-6.85,22.7-22.17,19.69-37.81c-2.93-15.25-16.09-26.61-31.97-27.59c-11.88-0.73-20.12-6.4-23.48-16.16
		c-5.43-15.77,6.02-32.2,22.8-31.84c31.37,0.67,55.49,14.77,70.78,42.02c15.4,27.44,14.91,55.73-1.37,82.69
		c-16.07,26.61-40.61,39.55-71.64,39.85C289.78,509.76,199.54,507.76,176.57,507.74z"/>
	<path class="st1" d="M314.04,334.82c-18.76,0.1-33.83,14.89-34.21,33.39c-0.38,18.47,14.07,33.85,32.75,34.86
		c15.35,0.83,25.12,11.03,24.57,25.64c-0.51,13.49-11.77,22.95-26.58,22.45c-7.89-0.27-15.57-1.63-23.01-4.18
		c-54.35-18.64-73.73-85.6-37.36-130.03c17.87-21.83,41.5-31.03,69.64-30.35c37.61,0.9,75.23,1.02,112.85,1.45
		c7.37,0.09,8.32,0.99,8.23,8.41c-0.08,6.82-0.21,13.64-0.3,20.47c-0.18,13.61-5.96,19.26-19.72,19.26
		C403.1,336.17,331.86,334.72,314.04,334.82z"/>
</g>
</svg>
